<mxfile host="app.diagrams.net" agent="Mozilla/5.0 (Windows NT 10.0; Win64; x64) AppleWebKit/537.36 (KHTML, like Gecko) Chrome/139.0.0.0 Safari/537.36" version="28.1.2">
  <diagram name="Page-1" id="tBL3N8IxOXMAxTI_FopS">
    <mxGraphModel dx="1256" dy="2122" grid="1" gridSize="10" guides="1" tooltips="1" connect="1" arrows="1" fold="1" page="1" pageScale="1" pageWidth="850" pageHeight="1100" math="0" shadow="0">
      <root>
        <mxCell id="0" />
        <mxCell id="1" parent="0" />
        <mxCell id="CmpwZ4_OyK2lbgLf2R7C-9" value="USER" style="swimlane;fontStyle=0;childLayout=stackLayout;horizontal=1;startSize=40;fillColor=none;horizontalStack=0;resizeParent=1;resizeParentMax=0;resizeLast=0;collapsible=1;marginBottom=0;html=1;" vertex="1" parent="1">
          <mxGeometry x="690" y="-490" width="310" height="248" as="geometry">
            <mxRectangle x="470" y="30" width="70" height="40" as="alternateBounds" />
          </mxGeometry>
        </mxCell>
        <mxCell id="CmpwZ4_OyK2lbgLf2R7C-10" value="user_id&amp;nbsp; &amp;nbsp; &amp;nbsp; &amp;nbsp; &amp;nbsp; &amp;nbsp; &amp;nbsp; &amp;nbsp; &amp;nbsp; &amp;nbsp; integer&amp;nbsp; &amp;nbsp; &amp;nbsp; &amp;nbsp; &amp;nbsp; &amp;nbsp; &amp;nbsp; &amp;nbsp; &amp;nbsp; &amp;nbsp; &amp;nbsp; &amp;nbsp;PK" style="text;strokeColor=none;fillColor=none;align=left;verticalAlign=top;spacingLeft=4;spacingRight=4;overflow=hidden;rotatable=0;points=[[0,0.5],[1,0.5]];portConstraint=eastwest;whiteSpace=wrap;html=1;" vertex="1" parent="CmpwZ4_OyK2lbgLf2R7C-9">
          <mxGeometry y="40" width="310" height="26" as="geometry" />
        </mxCell>
        <mxCell id="CmpwZ4_OyK2lbgLf2R7C-15" value="first_name&amp;nbsp; &amp;nbsp; &amp;nbsp; &amp;nbsp; &amp;nbsp; &amp;nbsp; &amp;nbsp; &amp;nbsp;VARCHAR(64)" style="text;strokeColor=none;fillColor=none;align=left;verticalAlign=top;spacingLeft=4;spacingRight=4;overflow=hidden;rotatable=0;points=[[0,0.5],[1,0.5]];portConstraint=eastwest;whiteSpace=wrap;html=1;" vertex="1" parent="CmpwZ4_OyK2lbgLf2R7C-9">
          <mxGeometry y="66" width="310" height="26" as="geometry" />
        </mxCell>
        <mxCell id="CmpwZ4_OyK2lbgLf2R7C-11" value="last_name&amp;nbsp; &amp;nbsp; &amp;nbsp; &amp;nbsp; &amp;nbsp; &amp;nbsp; &amp;nbsp; &amp;nbsp;VARCHAR(64)" style="text;strokeColor=none;fillColor=none;align=left;verticalAlign=top;spacingLeft=4;spacingRight=4;overflow=hidden;rotatable=0;points=[[0,0.5],[1,0.5]];portConstraint=eastwest;whiteSpace=wrap;html=1;" vertex="1" parent="CmpwZ4_OyK2lbgLf2R7C-9">
          <mxGeometry y="92" width="310" height="26" as="geometry" />
        </mxCell>
        <mxCell id="CmpwZ4_OyK2lbgLf2R7C-12" value="email&amp;nbsp; &amp;nbsp; &amp;nbsp; &amp;nbsp; &amp;nbsp; &amp;nbsp; &amp;nbsp; &amp;nbsp; &amp;nbsp; &amp;nbsp; &amp;nbsp; &amp;nbsp;VARCHAR(255)&amp;nbsp; &amp;nbsp; &amp;nbsp; &amp;nbsp; UK" style="text;strokeColor=none;fillColor=none;align=left;verticalAlign=top;spacingLeft=4;spacingRight=4;overflow=hidden;rotatable=0;points=[[0,0.5],[1,0.5]];portConstraint=eastwest;whiteSpace=wrap;html=1;" vertex="1" parent="CmpwZ4_OyK2lbgLf2R7C-9">
          <mxGeometry y="118" width="310" height="26" as="geometry" />
        </mxCell>
        <mxCell id="CmpwZ4_OyK2lbgLf2R7C-16" value="password_harsh&amp;nbsp; &amp;nbsp; &amp;nbsp;VARCHAR(64)" style="text;strokeColor=none;fillColor=none;align=left;verticalAlign=top;spacingLeft=4;spacingRight=4;overflow=hidden;rotatable=0;points=[[0,0.5],[1,0.5]];portConstraint=eastwest;whiteSpace=wrap;html=1;" vertex="1" parent="CmpwZ4_OyK2lbgLf2R7C-9">
          <mxGeometry y="144" width="310" height="26" as="geometry" />
        </mxCell>
        <mxCell id="CmpwZ4_OyK2lbgLf2R7C-17" value="phone_number&amp;nbsp; &amp;nbsp; &amp;nbsp; &amp;nbsp;VARCHAR(255)" style="text;strokeColor=none;fillColor=none;align=left;verticalAlign=top;spacingLeft=4;spacingRight=4;overflow=hidden;rotatable=0;points=[[0,0.5],[1,0.5]];portConstraint=eastwest;whiteSpace=wrap;html=1;" vertex="1" parent="CmpwZ4_OyK2lbgLf2R7C-9">
          <mxGeometry y="170" width="310" height="26" as="geometry" />
        </mxCell>
        <mxCell id="CmpwZ4_OyK2lbgLf2R7C-18" value="role&amp;nbsp; &amp;nbsp; &amp;nbsp; &amp;nbsp; &amp;nbsp; &amp;nbsp; &amp;nbsp; &amp;nbsp; &amp;nbsp; &amp;nbsp;ENUM(guest, host, admin), NOT NULL" style="text;strokeColor=none;fillColor=none;align=left;verticalAlign=top;spacingLeft=4;spacingRight=4;overflow=hidden;rotatable=0;points=[[0,0.5],[1,0.5]];portConstraint=eastwest;whiteSpace=wrap;html=1;" vertex="1" parent="CmpwZ4_OyK2lbgLf2R7C-9">
          <mxGeometry y="196" width="310" height="26" as="geometry" />
        </mxCell>
        <mxCell id="CmpwZ4_OyK2lbgLf2R7C-19" value="created_at&amp;nbsp; &amp;nbsp; &amp;nbsp; &amp;nbsp; &amp;nbsp; &amp;nbsp; &amp;nbsp; &amp;nbsp; &amp;nbsp; timestamp" style="text;strokeColor=none;fillColor=none;align=left;verticalAlign=top;spacingLeft=4;spacingRight=4;overflow=hidden;rotatable=0;points=[[0,0.5],[1,0.5]];portConstraint=eastwest;whiteSpace=wrap;html=1;" vertex="1" parent="CmpwZ4_OyK2lbgLf2R7C-9">
          <mxGeometry y="222" width="310" height="26" as="geometry" />
        </mxCell>
        <mxCell id="CmpwZ4_OyK2lbgLf2R7C-20" value="PROPERTY" style="swimlane;fontStyle=0;childLayout=stackLayout;horizontal=1;startSize=40;fillColor=none;horizontalStack=0;resizeParent=1;resizeParentMax=0;resizeLast=0;collapsible=1;marginBottom=0;html=1;" vertex="1" parent="1">
          <mxGeometry x="990" y="-129" width="260" height="248" as="geometry">
            <mxRectangle x="190" y="-248" width="70" height="40" as="alternateBounds" />
          </mxGeometry>
        </mxCell>
        <mxCell id="CmpwZ4_OyK2lbgLf2R7C-21" value="property_id&amp;nbsp; &amp;nbsp; &amp;nbsp; &amp;nbsp; &amp;nbsp; &amp;nbsp; &amp;nbsp; integer&amp;nbsp; &amp;nbsp; &amp;nbsp; &amp;nbsp; &amp;nbsp; &amp;nbsp; &amp;nbsp; &amp;nbsp; &amp;nbsp; &amp;nbsp; &amp;nbsp; &amp;nbsp;PK" style="text;strokeColor=none;fillColor=none;align=left;verticalAlign=top;spacingLeft=4;spacingRight=4;overflow=hidden;rotatable=0;points=[[0,0.5],[1,0.5]];portConstraint=eastwest;whiteSpace=wrap;html=1;" vertex="1" parent="CmpwZ4_OyK2lbgLf2R7C-20">
          <mxGeometry y="40" width="260" height="26" as="geometry" />
        </mxCell>
        <mxCell id="CmpwZ4_OyK2lbgLf2R7C-22" value="host_id&amp;nbsp; &amp;nbsp; &amp;nbsp; &amp;nbsp; &amp;nbsp; &amp;nbsp; &amp;nbsp; &amp;nbsp; &amp;nbsp; &amp;nbsp; integer&amp;nbsp; &amp;nbsp; &amp;nbsp; &amp;nbsp; &amp;nbsp; &amp;nbsp; &amp;nbsp; &amp;nbsp; &amp;nbsp; &amp;nbsp; &amp;nbsp; FK&amp;nbsp;" style="text;strokeColor=none;fillColor=none;align=left;verticalAlign=top;spacingLeft=4;spacingRight=4;overflow=hidden;rotatable=0;points=[[0,0.5],[1,0.5]];portConstraint=eastwest;whiteSpace=wrap;html=1;" vertex="1" parent="CmpwZ4_OyK2lbgLf2R7C-20">
          <mxGeometry y="66" width="260" height="26" as="geometry" />
        </mxCell>
        <mxCell id="CmpwZ4_OyK2lbgLf2R7C-23" value="name&amp;nbsp; &amp;nbsp; &amp;nbsp; &amp;nbsp; &amp;nbsp; &amp;nbsp; &amp;nbsp; &amp;nbsp; &amp;nbsp; &amp;nbsp; &amp;nbsp; &amp;nbsp;VARCHAR(64)" style="text;strokeColor=none;fillColor=none;align=left;verticalAlign=top;spacingLeft=4;spacingRight=4;overflow=hidden;rotatable=0;points=[[0,0.5],[1,0.5]];portConstraint=eastwest;whiteSpace=wrap;html=1;" vertex="1" parent="CmpwZ4_OyK2lbgLf2R7C-20">
          <mxGeometry y="92" width="260" height="26" as="geometry" />
        </mxCell>
        <mxCell id="CmpwZ4_OyK2lbgLf2R7C-24" value="description&amp;nbsp; &amp;nbsp; &amp;nbsp; &amp;nbsp; &amp;nbsp; &amp;nbsp; &amp;nbsp; &amp;nbsp;text" style="text;strokeColor=none;fillColor=none;align=left;verticalAlign=top;spacingLeft=4;spacingRight=4;overflow=hidden;rotatable=0;points=[[0,0.5],[1,0.5]];portConstraint=eastwest;whiteSpace=wrap;html=1;" vertex="1" parent="CmpwZ4_OyK2lbgLf2R7C-20">
          <mxGeometry y="118" width="260" height="26" as="geometry" />
        </mxCell>
        <mxCell id="CmpwZ4_OyK2lbgLf2R7C-25" value="location&amp;nbsp; &amp;nbsp; &amp;nbsp; &amp;nbsp; &amp;nbsp; &amp;nbsp; &amp;nbsp; &amp;nbsp; &amp;nbsp; &amp;nbsp; VARCHAR(255)" style="text;strokeColor=none;fillColor=none;align=left;verticalAlign=top;spacingLeft=4;spacingRight=4;overflow=hidden;rotatable=0;points=[[0,0.5],[1,0.5]];portConstraint=eastwest;whiteSpace=wrap;html=1;" vertex="1" parent="CmpwZ4_OyK2lbgLf2R7C-20">
          <mxGeometry y="144" width="260" height="26" as="geometry" />
        </mxCell>
        <mxCell id="CmpwZ4_OyK2lbgLf2R7C-26" value="pricenight&amp;nbsp; &amp;nbsp; &amp;nbsp; &amp;nbsp; &amp;nbsp; &amp;nbsp; &amp;nbsp; &amp;nbsp; decimal(12,2)" style="text;strokeColor=none;fillColor=none;align=left;verticalAlign=top;spacingLeft=4;spacingRight=4;overflow=hidden;rotatable=0;points=[[0,0.5],[1,0.5]];portConstraint=eastwest;whiteSpace=wrap;html=1;" vertex="1" parent="CmpwZ4_OyK2lbgLf2R7C-20">
          <mxGeometry y="170" width="260" height="26" as="geometry" />
        </mxCell>
        <mxCell id="CmpwZ4_OyK2lbgLf2R7C-27" value="created_at&amp;nbsp; &amp;nbsp; &amp;nbsp; &amp;nbsp; &amp;nbsp; &amp;nbsp; &amp;nbsp; &amp;nbsp;datetime" style="text;strokeColor=none;fillColor=none;align=left;verticalAlign=top;spacingLeft=4;spacingRight=4;overflow=hidden;rotatable=0;points=[[0,0.5],[1,0.5]];portConstraint=eastwest;whiteSpace=wrap;html=1;" vertex="1" parent="CmpwZ4_OyK2lbgLf2R7C-20">
          <mxGeometry y="196" width="260" height="26" as="geometry" />
        </mxCell>
        <mxCell id="CmpwZ4_OyK2lbgLf2R7C-28" value="updated_at&amp;nbsp; &amp;nbsp; &amp;nbsp; &amp;nbsp; &amp;nbsp; &amp;nbsp; &amp;nbsp; datetime" style="text;strokeColor=none;fillColor=none;align=left;verticalAlign=top;spacingLeft=4;spacingRight=4;overflow=hidden;rotatable=0;points=[[0,0.5],[1,0.5]];portConstraint=eastwest;whiteSpace=wrap;html=1;" vertex="1" parent="CmpwZ4_OyK2lbgLf2R7C-20">
          <mxGeometry y="222" width="260" height="26" as="geometry" />
        </mxCell>
        <mxCell id="CmpwZ4_OyK2lbgLf2R7C-30" value="BOOKING" style="swimlane;fontStyle=0;childLayout=stackLayout;horizontal=1;startSize=40;fillColor=none;horizontalStack=0;resizeParent=1;resizeParentMax=0;resizeLast=0;collapsible=1;marginBottom=0;html=1;" vertex="1" parent="1">
          <mxGeometry x="310" y="-510" width="270" height="248" as="geometry">
            <mxRectangle x="820" y="-248" width="70" height="40" as="alternateBounds" />
          </mxGeometry>
        </mxCell>
        <mxCell id="CmpwZ4_OyK2lbgLf2R7C-31" value="booking_id&amp;nbsp; &amp;nbsp; &amp;nbsp; &amp;nbsp; &amp;nbsp; &amp;nbsp; &amp;nbsp; &amp;nbsp; &amp;nbsp; &amp;nbsp; integer&amp;nbsp; &amp;nbsp; &amp;nbsp; &amp;nbsp; &amp;nbsp; &amp;nbsp; &amp;nbsp; &amp;nbsp; &amp;nbsp; &amp;nbsp; &amp;nbsp; &amp;nbsp;PK" style="text;strokeColor=none;fillColor=none;align=left;verticalAlign=top;spacingLeft=4;spacingRight=4;overflow=hidden;rotatable=0;points=[[0,0.5],[1,0.5]];portConstraint=eastwest;whiteSpace=wrap;html=1;" vertex="1" parent="CmpwZ4_OyK2lbgLf2R7C-30">
          <mxGeometry y="40" width="270" height="26" as="geometry" />
        </mxCell>
        <mxCell id="CmpwZ4_OyK2lbgLf2R7C-32" value="property_id&amp;nbsp; &amp;nbsp; &amp;nbsp; &amp;nbsp; &amp;nbsp; &amp;nbsp; &amp;nbsp; &amp;nbsp; &amp;nbsp; &amp;nbsp; integer&amp;nbsp; &amp;nbsp; &amp;nbsp; &amp;nbsp; &amp;nbsp; &amp;nbsp; &amp;nbsp; &amp;nbsp; &amp;nbsp; &amp;nbsp; &amp;nbsp; FK&amp;nbsp;" style="text;strokeColor=none;fillColor=none;align=left;verticalAlign=top;spacingLeft=4;spacingRight=4;overflow=hidden;rotatable=0;points=[[0,0.5],[1,0.5]];portConstraint=eastwest;whiteSpace=wrap;html=1;" vertex="1" parent="CmpwZ4_OyK2lbgLf2R7C-30">
          <mxGeometry y="66" width="270" height="26" as="geometry" />
        </mxCell>
        <mxCell id="CmpwZ4_OyK2lbgLf2R7C-33" value="user_id&amp;nbsp; &amp;nbsp; &amp;nbsp; &amp;nbsp; &amp;nbsp; &amp;nbsp; &amp;nbsp; &amp;nbsp; &amp;nbsp; &amp;nbsp; &amp;nbsp; &amp;nbsp; &amp;nbsp; integer&amp;nbsp; &amp;nbsp; &amp;nbsp; &amp;nbsp; &amp;nbsp; &amp;nbsp; &amp;nbsp; &amp;nbsp; &amp;nbsp; &amp;nbsp; &amp;nbsp; FK" style="text;strokeColor=none;fillColor=none;align=left;verticalAlign=top;spacingLeft=4;spacingRight=4;overflow=hidden;rotatable=0;points=[[0,0.5],[1,0.5]];portConstraint=eastwest;whiteSpace=wrap;html=1;" vertex="1" parent="CmpwZ4_OyK2lbgLf2R7C-30">
          <mxGeometry y="92" width="270" height="26" as="geometry" />
        </mxCell>
        <mxCell id="CmpwZ4_OyK2lbgLf2R7C-34" value="start_date&amp;nbsp; &amp;nbsp; &amp;nbsp; &amp;nbsp; &amp;nbsp; &amp;nbsp; &amp;nbsp; &amp;nbsp; &amp;nbsp; &amp;nbsp; &amp;nbsp;datetime" style="text;strokeColor=none;fillColor=none;align=left;verticalAlign=top;spacingLeft=4;spacingRight=4;overflow=hidden;rotatable=0;points=[[0,0.5],[1,0.5]];portConstraint=eastwest;whiteSpace=wrap;html=1;" vertex="1" parent="CmpwZ4_OyK2lbgLf2R7C-30">
          <mxGeometry y="118" width="270" height="26" as="geometry" />
        </mxCell>
        <mxCell id="CmpwZ4_OyK2lbgLf2R7C-78" value="end_date&amp;nbsp; &amp;nbsp; &amp;nbsp; &amp;nbsp; &amp;nbsp; &amp;nbsp; &amp;nbsp; &amp;nbsp; &amp;nbsp; &amp;nbsp; &amp;nbsp; datetime" style="text;strokeColor=none;fillColor=none;align=left;verticalAlign=top;spacingLeft=4;spacingRight=4;overflow=hidden;rotatable=0;points=[[0,0.5],[1,0.5]];portConstraint=eastwest;whiteSpace=wrap;html=1;" vertex="1" parent="CmpwZ4_OyK2lbgLf2R7C-30">
          <mxGeometry y="144" width="270" height="26" as="geometry" />
        </mxCell>
        <mxCell id="CmpwZ4_OyK2lbgLf2R7C-36" value="total_price&amp;nbsp; &amp;nbsp; &amp;nbsp; &amp;nbsp; &amp;nbsp; &amp;nbsp; &amp;nbsp; &amp;nbsp; &amp;nbsp; &amp;nbsp; decimal(12,2)" style="text;strokeColor=none;fillColor=none;align=left;verticalAlign=top;spacingLeft=4;spacingRight=4;overflow=hidden;rotatable=0;points=[[0,0.5],[1,0.5]];portConstraint=eastwest;whiteSpace=wrap;html=1;" vertex="1" parent="CmpwZ4_OyK2lbgLf2R7C-30">
          <mxGeometry y="170" width="270" height="26" as="geometry" />
        </mxCell>
        <mxCell id="CmpwZ4_OyK2lbgLf2R7C-37" value="status&amp;nbsp; &amp;nbsp; &amp;nbsp; &amp;nbsp; &amp;nbsp; &amp;nbsp; &amp;nbsp; &amp;nbsp; &amp;nbsp; &amp;nbsp; &amp;nbsp; &amp;nbsp; &amp;nbsp; ENUM, NOT NULL" style="text;strokeColor=none;fillColor=none;align=left;verticalAlign=top;spacingLeft=4;spacingRight=4;overflow=hidden;rotatable=0;points=[[0,0.5],[1,0.5]];portConstraint=eastwest;whiteSpace=wrap;html=1;" vertex="1" parent="CmpwZ4_OyK2lbgLf2R7C-30">
          <mxGeometry y="196" width="270" height="26" as="geometry" />
        </mxCell>
        <mxCell id="CmpwZ4_OyK2lbgLf2R7C-38" value="created_at&amp;nbsp; &amp;nbsp; &amp;nbsp; &amp;nbsp; &amp;nbsp; &amp;nbsp; &amp;nbsp; &amp;nbsp; &amp;nbsp; &amp;nbsp;timestamp" style="text;strokeColor=none;fillColor=none;align=left;verticalAlign=top;spacingLeft=4;spacingRight=4;overflow=hidden;rotatable=0;points=[[0,0.5],[1,0.5]];portConstraint=eastwest;whiteSpace=wrap;html=1;" vertex="1" parent="CmpwZ4_OyK2lbgLf2R7C-30">
          <mxGeometry y="222" width="270" height="26" as="geometry" />
        </mxCell>
        <mxCell id="CmpwZ4_OyK2lbgLf2R7C-39" value="PAYMENT" style="swimlane;fontStyle=0;childLayout=stackLayout;horizontal=1;startSize=40;fillColor=none;horizontalStack=0;resizeParent=1;resizeParentMax=0;resizeLast=0;collapsible=1;marginBottom=0;html=1;" vertex="1" parent="1">
          <mxGeometry x="690" y="-730" width="310" height="170" as="geometry">
            <mxRectangle x="1160" y="80" width="70" height="40" as="alternateBounds" />
          </mxGeometry>
        </mxCell>
        <mxCell id="CmpwZ4_OyK2lbgLf2R7C-40" value="paymeent_id&amp;nbsp; &amp;nbsp; &amp;nbsp; &amp;nbsp; &amp;nbsp; &amp;nbsp; &amp;nbsp; &amp;nbsp; &amp;nbsp; &amp;nbsp; integer&amp;nbsp; &amp;nbsp; &amp;nbsp; &amp;nbsp; &amp;nbsp; &amp;nbsp; &amp;nbsp; &amp;nbsp; &amp;nbsp; &amp;nbsp; &amp;nbsp; &amp;nbsp;PK" style="text;strokeColor=none;fillColor=none;align=left;verticalAlign=top;spacingLeft=4;spacingRight=4;overflow=hidden;rotatable=0;points=[[0,0.5],[1,0.5]];portConstraint=eastwest;whiteSpace=wrap;html=1;" vertex="1" parent="CmpwZ4_OyK2lbgLf2R7C-39">
          <mxGeometry y="40" width="310" height="26" as="geometry" />
        </mxCell>
        <mxCell id="CmpwZ4_OyK2lbgLf2R7C-41" value="booking_id&amp;nbsp; &amp;nbsp; &amp;nbsp; &amp;nbsp; &amp;nbsp; &amp;nbsp; &amp;nbsp; &amp;nbsp; &amp;nbsp; &amp;nbsp; integer&amp;nbsp; &amp;nbsp; &amp;nbsp; &amp;nbsp; &amp;nbsp; &amp;nbsp; &amp;nbsp; &amp;nbsp; &amp;nbsp; &amp;nbsp; &amp;nbsp; FK&amp;nbsp;" style="text;strokeColor=none;fillColor=none;align=left;verticalAlign=top;spacingLeft=4;spacingRight=4;overflow=hidden;rotatable=0;points=[[0,0.5],[1,0.5]];portConstraint=eastwest;whiteSpace=wrap;html=1;" vertex="1" parent="CmpwZ4_OyK2lbgLf2R7C-39">
          <mxGeometry y="66" width="310" height="26" as="geometry" />
        </mxCell>
        <mxCell id="CmpwZ4_OyK2lbgLf2R7C-42" value="amount&amp;nbsp; &amp;nbsp; &amp;nbsp; &amp;nbsp; &amp;nbsp; &amp;nbsp; &amp;nbsp; &amp;nbsp; &amp;nbsp; &amp;nbsp; &amp;nbsp; &amp;nbsp; &amp;nbsp; &amp;nbsp; &amp;nbsp; decimal(12,2)" style="text;strokeColor=none;fillColor=none;align=left;verticalAlign=top;spacingLeft=4;spacingRight=4;overflow=hidden;rotatable=0;points=[[0,0.5],[1,0.5]];portConstraint=eastwest;whiteSpace=wrap;html=1;" vertex="1" parent="CmpwZ4_OyK2lbgLf2R7C-39">
          <mxGeometry y="92" width="310" height="26" as="geometry" />
        </mxCell>
        <mxCell id="CmpwZ4_OyK2lbgLf2R7C-43" value="payment_date&amp;nbsp; &amp;nbsp; &amp;nbsp; &amp;nbsp; &amp;nbsp; &amp;nbsp; &amp;nbsp; &amp;nbsp; &amp;nbsp; &amp;nbsp;datetime" style="text;strokeColor=none;fillColor=none;align=left;verticalAlign=top;spacingLeft=4;spacingRight=4;overflow=hidden;rotatable=0;points=[[0,0.5],[1,0.5]];portConstraint=eastwest;whiteSpace=wrap;html=1;" vertex="1" parent="CmpwZ4_OyK2lbgLf2R7C-39">
          <mxGeometry y="118" width="310" height="26" as="geometry" />
        </mxCell>
        <mxCell id="CmpwZ4_OyK2lbgLf2R7C-44" value="payment_method&amp;nbsp; &amp;nbsp; &amp;nbsp; &amp;nbsp; &amp;nbsp; &amp;nbsp; &amp;nbsp; ENUM, NOT NUM" style="text;strokeColor=none;fillColor=none;align=left;verticalAlign=top;spacingLeft=4;spacingRight=4;overflow=hidden;rotatable=0;points=[[0,0.5],[1,0.5]];portConstraint=eastwest;whiteSpace=wrap;html=1;" vertex="1" parent="CmpwZ4_OyK2lbgLf2R7C-39">
          <mxGeometry y="144" width="310" height="26" as="geometry" />
        </mxCell>
        <mxCell id="CmpwZ4_OyK2lbgLf2R7C-48" value="REVIEW" style="swimlane;fontStyle=0;childLayout=stackLayout;horizontal=1;startSize=40;fillColor=none;horizontalStack=0;resizeParent=1;resizeParentMax=0;resizeLast=0;collapsible=1;marginBottom=0;html=1;" vertex="1" parent="1">
          <mxGeometry x="710" y="220" width="270" height="196" as="geometry">
            <mxRectangle x="820" y="340" width="70" height="40" as="alternateBounds" />
          </mxGeometry>
        </mxCell>
        <mxCell id="CmpwZ4_OyK2lbgLf2R7C-49" value="review_id&amp;nbsp; &amp;nbsp; &amp;nbsp; &amp;nbsp; &amp;nbsp; &amp;nbsp; &amp;nbsp; &amp;nbsp; &amp;nbsp; &amp;nbsp; integer&amp;nbsp; &amp;nbsp; &amp;nbsp; &amp;nbsp; &amp;nbsp; &amp;nbsp; &amp;nbsp; &amp;nbsp; &amp;nbsp; &amp;nbsp; &amp;nbsp; &amp;nbsp;PK" style="text;strokeColor=none;fillColor=none;align=left;verticalAlign=top;spacingLeft=4;spacingRight=4;overflow=hidden;rotatable=0;points=[[0,0.5],[1,0.5]];portConstraint=eastwest;whiteSpace=wrap;html=1;" vertex="1" parent="CmpwZ4_OyK2lbgLf2R7C-48">
          <mxGeometry y="40" width="270" height="26" as="geometry" />
        </mxCell>
        <mxCell id="CmpwZ4_OyK2lbgLf2R7C-50" value="property_id&amp;nbsp; &amp;nbsp; &amp;nbsp; &amp;nbsp; &amp;nbsp; &amp;nbsp; &amp;nbsp; &amp;nbsp; &amp;nbsp; &amp;nbsp; integer&amp;nbsp; &amp;nbsp; &amp;nbsp; &amp;nbsp; &amp;nbsp; &amp;nbsp; &amp;nbsp; &amp;nbsp; &amp;nbsp; &amp;nbsp; &amp;nbsp; FK&amp;nbsp;" style="text;strokeColor=none;fillColor=none;align=left;verticalAlign=top;spacingLeft=4;spacingRight=4;overflow=hidden;rotatable=0;points=[[0,0.5],[1,0.5]];portConstraint=eastwest;whiteSpace=wrap;html=1;" vertex="1" parent="CmpwZ4_OyK2lbgLf2R7C-48">
          <mxGeometry y="66" width="270" height="26" as="geometry" />
        </mxCell>
        <mxCell id="CmpwZ4_OyK2lbgLf2R7C-51" value="user_id&amp;nbsp; &amp;nbsp; &amp;nbsp; &amp;nbsp; &amp;nbsp; &amp;nbsp; &amp;nbsp; &amp;nbsp; &amp;nbsp; &amp;nbsp; &amp;nbsp; &amp;nbsp; &amp;nbsp; integer&amp;nbsp; &amp;nbsp; &amp;nbsp; &amp;nbsp; &amp;nbsp; &amp;nbsp; &amp;nbsp; &amp;nbsp; &amp;nbsp; &amp;nbsp; &amp;nbsp; FK" style="text;strokeColor=none;fillColor=none;align=left;verticalAlign=top;spacingLeft=4;spacingRight=4;overflow=hidden;rotatable=0;points=[[0,0.5],[1,0.5]];portConstraint=eastwest;whiteSpace=wrap;html=1;" vertex="1" parent="CmpwZ4_OyK2lbgLf2R7C-48">
          <mxGeometry y="92" width="270" height="26" as="geometry" />
        </mxCell>
        <mxCell id="CmpwZ4_OyK2lbgLf2R7C-52" value="rating&amp;nbsp; &amp;nbsp; &amp;nbsp; &amp;nbsp; &amp;nbsp; &amp;nbsp; &amp;nbsp; &amp;nbsp; &amp;nbsp; &amp;nbsp; &amp;nbsp; &amp;nbsp; &amp;nbsp; &amp;nbsp; &amp;nbsp;integer&amp;nbsp;" style="text;strokeColor=none;fillColor=none;align=left;verticalAlign=top;spacingLeft=4;spacingRight=4;overflow=hidden;rotatable=0;points=[[0,0.5],[1,0.5]];portConstraint=eastwest;whiteSpace=wrap;html=1;" vertex="1" parent="CmpwZ4_OyK2lbgLf2R7C-48">
          <mxGeometry y="118" width="270" height="26" as="geometry" />
        </mxCell>
        <mxCell id="CmpwZ4_OyK2lbgLf2R7C-53" value="comment&amp;nbsp; &amp;nbsp; &amp;nbsp; &amp;nbsp; &amp;nbsp; &amp;nbsp; &amp;nbsp; &amp;nbsp; &amp;nbsp; &amp;nbsp; &amp;nbsp; &amp;nbsp;text" style="text;strokeColor=none;fillColor=none;align=left;verticalAlign=top;spacingLeft=4;spacingRight=4;overflow=hidden;rotatable=0;points=[[0,0.5],[1,0.5]];portConstraint=eastwest;whiteSpace=wrap;html=1;" vertex="1" parent="CmpwZ4_OyK2lbgLf2R7C-48">
          <mxGeometry y="144" width="270" height="26" as="geometry" />
        </mxCell>
        <mxCell id="CmpwZ4_OyK2lbgLf2R7C-54" value="created_at&amp;nbsp; &amp;nbsp; &amp;nbsp; &amp;nbsp; &amp;nbsp; &amp;nbsp; &amp;nbsp; &amp;nbsp; &amp;nbsp; &amp;nbsp; timestamp" style="text;strokeColor=none;fillColor=none;align=left;verticalAlign=top;spacingLeft=4;spacingRight=4;overflow=hidden;rotatable=0;points=[[0,0.5],[1,0.5]];portConstraint=eastwest;whiteSpace=wrap;html=1;" vertex="1" parent="CmpwZ4_OyK2lbgLf2R7C-48">
          <mxGeometry y="170" width="270" height="26" as="geometry" />
        </mxCell>
        <mxCell id="CmpwZ4_OyK2lbgLf2R7C-64" value="MESSAGE" style="swimlane;fontStyle=0;childLayout=stackLayout;horizontal=1;startSize=40;fillColor=none;horizontalStack=0;resizeParent=1;resizeParentMax=0;resizeLast=0;collapsible=1;marginBottom=0;html=1;" vertex="1" parent="1">
          <mxGeometry x="490" y="-90" width="260" height="170" as="geometry">
            <mxRectangle x="190" y="366" width="70" height="40" as="alternateBounds" />
          </mxGeometry>
        </mxCell>
        <mxCell id="CmpwZ4_OyK2lbgLf2R7C-65" value="message_id&amp;nbsp; &amp;nbsp; &amp;nbsp; &amp;nbsp; &amp;nbsp; &amp;nbsp; &amp;nbsp; &amp;nbsp; &amp;nbsp; &amp;nbsp; integer&amp;nbsp; &amp;nbsp; &amp;nbsp; &amp;nbsp; &amp;nbsp; &amp;nbsp; &amp;nbsp; &amp;nbsp; &amp;nbsp; PK" style="text;strokeColor=none;fillColor=none;align=left;verticalAlign=top;spacingLeft=4;spacingRight=4;overflow=hidden;rotatable=0;points=[[0,0.5],[1,0.5]];portConstraint=eastwest;whiteSpace=wrap;html=1;" vertex="1" parent="CmpwZ4_OyK2lbgLf2R7C-64">
          <mxGeometry y="40" width="260" height="26" as="geometry" />
        </mxCell>
        <mxCell id="CmpwZ4_OyK2lbgLf2R7C-66" value="sender_id&amp;nbsp; &amp;nbsp; &amp;nbsp; &amp;nbsp; &amp;nbsp; &amp;nbsp; &amp;nbsp; &amp;nbsp; &amp;nbsp; &amp;nbsp; &amp;nbsp; &amp;nbsp;integer&amp;nbsp; &amp;nbsp; &amp;nbsp; &amp;nbsp; &amp;nbsp; &amp;nbsp; &amp;nbsp; &amp;nbsp; &amp;nbsp; &amp;nbsp;FK&amp;nbsp;" style="text;strokeColor=none;fillColor=none;align=left;verticalAlign=top;spacingLeft=4;spacingRight=4;overflow=hidden;rotatable=0;points=[[0,0.5],[1,0.5]];portConstraint=eastwest;whiteSpace=wrap;html=1;" vertex="1" parent="CmpwZ4_OyK2lbgLf2R7C-64">
          <mxGeometry y="66" width="260" height="26" as="geometry" />
        </mxCell>
        <mxCell id="CmpwZ4_OyK2lbgLf2R7C-67" value="recipient_id&amp;nbsp; &amp;nbsp; &amp;nbsp; &amp;nbsp; &amp;nbsp; &amp;nbsp; &amp;nbsp; &amp;nbsp; &amp;nbsp; &amp;nbsp; &amp;nbsp; integer&amp;nbsp; &amp;nbsp; &amp;nbsp; &amp;nbsp; &amp;nbsp; &amp;nbsp; &amp;nbsp; &amp;nbsp; &amp;nbsp;FK" style="text;strokeColor=none;fillColor=none;align=left;verticalAlign=top;spacingLeft=4;spacingRight=4;overflow=hidden;rotatable=0;points=[[0,0.5],[1,0.5]];portConstraint=eastwest;whiteSpace=wrap;html=1;" vertex="1" parent="CmpwZ4_OyK2lbgLf2R7C-64">
          <mxGeometry y="92" width="260" height="26" as="geometry" />
        </mxCell>
        <mxCell id="CmpwZ4_OyK2lbgLf2R7C-68" value="message_body&amp;nbsp; &amp;nbsp; &amp;nbsp; &amp;nbsp; &amp;nbsp; &amp;nbsp; &amp;nbsp; &amp;nbsp; &amp;nbsp;text" style="text;strokeColor=none;fillColor=none;align=left;verticalAlign=top;spacingLeft=4;spacingRight=4;overflow=hidden;rotatable=0;points=[[0,0.5],[1,0.5]];portConstraint=eastwest;whiteSpace=wrap;html=1;" vertex="1" parent="CmpwZ4_OyK2lbgLf2R7C-64">
          <mxGeometry y="118" width="260" height="26" as="geometry" />
        </mxCell>
        <mxCell id="CmpwZ4_OyK2lbgLf2R7C-69" value="sent_at&amp;nbsp; &amp;nbsp; &amp;nbsp; &amp;nbsp; &amp;nbsp; &amp;nbsp; &amp;nbsp; &amp;nbsp; &amp;nbsp; &amp;nbsp; &amp;nbsp; &amp;nbsp; &amp;nbsp; &amp;nbsp; &amp;nbsp; timestamp" style="text;strokeColor=none;fillColor=none;align=left;verticalAlign=top;spacingLeft=4;spacingRight=4;overflow=hidden;rotatable=0;points=[[0,0.5],[1,0.5]];portConstraint=eastwest;whiteSpace=wrap;html=1;" vertex="1" parent="CmpwZ4_OyK2lbgLf2R7C-64">
          <mxGeometry y="144" width="260" height="26" as="geometry" />
        </mxCell>
        <mxCell id="CmpwZ4_OyK2lbgLf2R7C-136" value="" style="endArrow=none;html=1;rounded=0;fontSize=12;startSize=8;endSize=8;curved=1;exitX=0.999;exitY=0.2;exitDx=0;exitDy=0;entryX=0.457;entryY=-0.006;entryDx=0;entryDy=0;entryPerimeter=0;exitPerimeter=0;" edge="1" parent="1" source="CmpwZ4_OyK2lbgLf2R7C-31" target="CmpwZ4_OyK2lbgLf2R7C-9">
          <mxGeometry width="50" height="50" relative="1" as="geometry">
            <mxPoint x="620" y="-330" as="sourcePoint" />
            <mxPoint x="670" y="-380" as="targetPoint" />
            <Array as="points">
              <mxPoint x="700" y="-560" />
            </Array>
          </mxGeometry>
        </mxCell>
        <mxCell id="CmpwZ4_OyK2lbgLf2R7C-138" value="" style="endArrow=none;html=1;rounded=0;fontSize=12;startSize=8;endSize=8;curved=1;exitX=0.45;exitY=0.003;exitDx=0;exitDy=0;exitPerimeter=0;entryX=0.5;entryY=0;entryDx=0;entryDy=0;" edge="1" parent="1" source="CmpwZ4_OyK2lbgLf2R7C-30" target="CmpwZ4_OyK2lbgLf2R7C-39">
          <mxGeometry width="50" height="50" relative="1" as="geometry">
            <mxPoint x="620" y="-620" as="sourcePoint" />
            <mxPoint x="670" y="-670" as="targetPoint" />
            <Array as="points">
              <mxPoint x="500" y="-840" />
            </Array>
          </mxGeometry>
        </mxCell>
        <mxCell id="CmpwZ4_OyK2lbgLf2R7C-139" value="" style="endArrow=none;html=1;rounded=0;fontSize=12;startSize=8;endSize=8;curved=1;exitX=0.842;exitY=1.007;exitDx=0;exitDy=0;entryX=0.5;entryY=0;entryDx=0;entryDy=0;exitPerimeter=0;" edge="1" parent="1" source="CmpwZ4_OyK2lbgLf2R7C-19" target="CmpwZ4_OyK2lbgLf2R7C-20">
          <mxGeometry width="50" height="50" relative="1" as="geometry">
            <mxPoint x="860" y="-500" as="sourcePoint" />
            <mxPoint x="910" y="-550" as="targetPoint" />
            <Array as="points">
              <mxPoint x="980" y="-160" />
            </Array>
          </mxGeometry>
        </mxCell>
        <mxCell id="CmpwZ4_OyK2lbgLf2R7C-142" value="" style="endArrow=none;html=1;rounded=0;fontSize=12;startSize=8;endSize=8;curved=1;exitDx=0;exitDy=0;entryX=0.564;entryY=0.916;entryDx=0;entryDy=0;entryPerimeter=0;" edge="1" parent="1" source="CmpwZ4_OyK2lbgLf2R7C-180" target="CmpwZ4_OyK2lbgLf2R7C-19">
          <mxGeometry width="50" height="50" relative="1" as="geometry">
            <mxPoint x="1000" y="-130" as="sourcePoint" />
            <mxPoint x="1050" y="-180" as="targetPoint" />
            <Array as="points">
              <mxPoint x="920" y="-60" />
            </Array>
          </mxGeometry>
        </mxCell>
        <mxCell id="CmpwZ4_OyK2lbgLf2R7C-143" value="" style="endArrow=none;html=1;rounded=0;fontSize=12;startSize=8;endSize=8;curved=1;exitDx=0;exitDy=0;entryX=0.238;entryY=1.026;entryDx=0;entryDy=0;entryPerimeter=0;" edge="1" parent="1" source="CmpwZ4_OyK2lbgLf2R7C-175" target="CmpwZ4_OyK2lbgLf2R7C-19">
          <mxGeometry width="50" height="50" relative="1" as="geometry">
            <mxPoint x="940" y="-210" as="sourcePoint" />
            <mxPoint x="990" y="-260" as="targetPoint" />
            <Array as="points">
              <mxPoint x="680" y="-120" />
              <mxPoint x="750" y="-160" />
            </Array>
          </mxGeometry>
        </mxCell>
        <mxCell id="CmpwZ4_OyK2lbgLf2R7C-144" value="" style="endArrow=none;html=1;rounded=0;fontSize=12;startSize=8;endSize=8;curved=1;exitX=0.693;exitY=0;exitDx=0;exitDy=0;exitPerimeter=0;entryX=0.406;entryY=1.038;entryDx=0;entryDy=0;entryPerimeter=0;" edge="1" parent="1" source="CmpwZ4_OyK2lbgLf2R7C-48" target="CmpwZ4_OyK2lbgLf2R7C-28">
          <mxGeometry width="50" height="50" relative="1" as="geometry">
            <mxPoint x="820" y="40" as="sourcePoint" />
            <mxPoint x="870" y="-10" as="targetPoint" />
            <Array as="points">
              <mxPoint x="930" y="200" />
              <mxPoint x="1000" y="160" />
            </Array>
          </mxGeometry>
        </mxCell>
        <mxCell id="CmpwZ4_OyK2lbgLf2R7C-147" value="" style="shape=partialRectangle;whiteSpace=wrap;html=1;left=0;right=0;fillColor=none;rotation=15;" vertex="1" parent="1">
          <mxGeometry x="750" y="-230" width="20" height="10" as="geometry" />
        </mxCell>
        <mxCell id="CmpwZ4_OyK2lbgLf2R7C-149" value="" style="shape=partialRectangle;whiteSpace=wrap;html=1;left=0;right=0;fillColor=none;rotation=120;" vertex="1" parent="1">
          <mxGeometry x="790" y="-510" width="20" height="10" as="geometry" />
        </mxCell>
        <mxCell id="CmpwZ4_OyK2lbgLf2R7C-151" value="" style="shape=partialRectangle;whiteSpace=wrap;html=1;left=0;right=0;fillColor=none;rotation=-10;" vertex="1" parent="1">
          <mxGeometry x="860" y="-230" width="20" height="10" as="geometry" />
        </mxCell>
        <mxCell id="CmpwZ4_OyK2lbgLf2R7C-152" value="" style="shape=partialRectangle;whiteSpace=wrap;html=1;left=0;right=0;fillColor=none;rotation=-20;" vertex="1" parent="1">
          <mxGeometry x="950" y="-230" width="20" height="10" as="geometry" />
        </mxCell>
        <mxCell id="CmpwZ4_OyK2lbgLf2R7C-153" value="" style="endArrow=none;html=1;rounded=0;fontSize=12;startSize=8;endSize=8;curved=1;exitDx=0;exitDy=0;exitPerimeter=0;entryX=0.618;entryY=0.001;entryDx=0;entryDy=0;entryPerimeter=0;" edge="1" parent="1" source="CmpwZ4_OyK2lbgLf2R7C-167" target="CmpwZ4_OyK2lbgLf2R7C-30">
          <mxGeometry width="50" height="50" relative="1" as="geometry">
            <mxPoint x="1170" y="-140" as="sourcePoint" />
            <mxPoint x="1170" y="-370" as="targetPoint" />
            <Array as="points" />
          </mxGeometry>
        </mxCell>
        <mxCell id="CmpwZ4_OyK2lbgLf2R7C-154" value="" style="shape=partialRectangle;whiteSpace=wrap;html=1;left=0;right=0;fillColor=none;rotation=10;" vertex="1" parent="1">
          <mxGeometry x="1160" y="-170" width="20" height="10" as="geometry" />
        </mxCell>
        <mxCell id="CmpwZ4_OyK2lbgLf2R7C-156" value="" style="shape=partialRectangle;whiteSpace=wrap;html=1;left=0;right=0;fillColor=none;rotation=10;" vertex="1" parent="1">
          <mxGeometry x="424.96" y="-534.57" width="25" height="10" as="geometry" />
        </mxCell>
        <mxCell id="CmpwZ4_OyK2lbgLf2R7C-157" value="" style="shape=partialRectangle;whiteSpace=wrap;html=1;left=0;right=0;fillColor=none;rotation=-70;" vertex="1" parent="1">
          <mxGeometry x="791.64" y="-747.65" width="20" height="10" as="geometry" />
        </mxCell>
        <mxCell id="CmpwZ4_OyK2lbgLf2R7C-158" value="" style="shape=partialRectangle;whiteSpace=wrap;html=1;left=0;right=0;fillColor=none;rotation=60;" vertex="1" parent="1">
          <mxGeometry x="1050" y="130" width="20" height="10" as="geometry" />
        </mxCell>
        <mxCell id="CmpwZ4_OyK2lbgLf2R7C-160" value="" style="endArrow=none;html=1;rounded=0;fontSize=12;startSize=8;endSize=8;curved=1;exitDx=0;exitDy=0;exitPerimeter=0;" edge="1" parent="1" source="CmpwZ4_OyK2lbgLf2R7C-165">
          <mxGeometry width="50" height="50" relative="1" as="geometry">
            <mxPoint x="600" y="-390" as="sourcePoint" />
            <mxPoint x="600" y="-480" as="targetPoint" />
            <Array as="points">
              <mxPoint x="590" y="-460" />
            </Array>
          </mxGeometry>
        </mxCell>
        <mxCell id="CmpwZ4_OyK2lbgLf2R7C-161" value="" style="endArrow=none;html=1;rounded=0;fontSize=12;startSize=8;endSize=8;curved=1;exitX=1.011;exitY=0.621;exitDx=0;exitDy=0;exitPerimeter=0;" edge="1" parent="1">
          <mxGeometry width="50" height="50" relative="1" as="geometry">
            <mxPoint x="580" y="-474" as="sourcePoint" />
            <mxPoint x="600" y="-480" as="targetPoint" />
            <Array as="points">
              <mxPoint x="587" y="-480" />
            </Array>
          </mxGeometry>
        </mxCell>
        <mxCell id="CmpwZ4_OyK2lbgLf2R7C-162" value="" style="endArrow=none;html=1;rounded=0;fontSize=12;startSize=8;endSize=8;curved=1;exitX=0.793;exitY=0.001;exitDx=0;exitDy=0;exitPerimeter=0;" edge="1" parent="1" source="CmpwZ4_OyK2lbgLf2R7C-30">
          <mxGeometry width="50" height="50" relative="1" as="geometry">
            <mxPoint x="530" y="-510" as="sourcePoint" />
            <mxPoint x="550" y="-520" as="targetPoint" />
            <Array as="points">
              <mxPoint x="540" y="-519" />
            </Array>
          </mxGeometry>
        </mxCell>
        <mxCell id="CmpwZ4_OyK2lbgLf2R7C-163" value="" style="endArrow=none;html=1;rounded=0;fontSize=12;startSize=8;endSize=8;curved=1;exitX=0.604;exitY=0;exitDx=0;exitDy=0;exitPerimeter=0;" edge="1" parent="1" source="CmpwZ4_OyK2lbgLf2R7C-30">
          <mxGeometry width="50" height="50" relative="1" as="geometry">
            <mxPoint x="530" y="-533" as="sourcePoint" />
            <mxPoint x="550" y="-520" as="targetPoint" />
            <Array as="points">
              <mxPoint x="510" y="-530" />
            </Array>
          </mxGeometry>
        </mxCell>
        <mxCell id="CmpwZ4_OyK2lbgLf2R7C-166" value="" style="endArrow=none;html=1;rounded=0;fontSize=12;startSize=8;endSize=8;curved=1;exitX=0.999;exitY=0.74;exitDx=0;exitDy=0;exitPerimeter=0;" edge="1" parent="1" source="CmpwZ4_OyK2lbgLf2R7C-31" target="CmpwZ4_OyK2lbgLf2R7C-165">
          <mxGeometry width="50" height="50" relative="1" as="geometry">
            <mxPoint x="580" y="-451" as="sourcePoint" />
            <mxPoint x="600" y="-480" as="targetPoint" />
            <Array as="points" />
          </mxGeometry>
        </mxCell>
        <mxCell id="CmpwZ4_OyK2lbgLf2R7C-165" value="" style="shape=waypoint;sketch=0;size=6;pointerEvents=1;points=[];fillColor=none;resizable=0;rotatable=0;perimeter=centerPerimeter;snapToPoint=1;" vertex="1" parent="1">
          <mxGeometry x="590" y="-490" width="20" height="20" as="geometry" />
        </mxCell>
        <mxCell id="CmpwZ4_OyK2lbgLf2R7C-170" value="" style="endArrow=none;html=1;rounded=0;fontSize=12;startSize=8;endSize=8;curved=1;exitX=0.649;exitY=0.025;exitDx=0;exitDy=0;exitPerimeter=0;entryDx=0;entryDy=0;entryPerimeter=0;" edge="1" parent="1" source="CmpwZ4_OyK2lbgLf2R7C-20" target="CmpwZ4_OyK2lbgLf2R7C-167">
          <mxGeometry width="50" height="50" relative="1" as="geometry">
            <mxPoint x="1159" y="-123" as="sourcePoint" />
            <mxPoint x="477" y="-510" as="targetPoint" />
            <Array as="points">
              <mxPoint x="1300" y="-640" />
            </Array>
          </mxGeometry>
        </mxCell>
        <mxCell id="CmpwZ4_OyK2lbgLf2R7C-167" value="" style="shape=waypoint;sketch=0;size=6;pointerEvents=1;points=[];fillColor=none;resizable=0;rotatable=0;perimeter=centerPerimeter;snapToPoint=1;" vertex="1" parent="1">
          <mxGeometry x="540" y="-530" width="20" height="20" as="geometry" />
        </mxCell>
        <mxCell id="CmpwZ4_OyK2lbgLf2R7C-173" value="" style="endArrow=none;html=1;rounded=0;fontSize=12;startSize=8;endSize=8;curved=1;exitX=0.57;exitY=0;exitDx=0;exitDy=0;exitPerimeter=0;" edge="1" parent="1" source="CmpwZ4_OyK2lbgLf2R7C-64">
          <mxGeometry width="50" height="50" relative="1" as="geometry">
            <mxPoint x="670" y="-70" as="sourcePoint" />
            <mxPoint x="640" y="-100" as="targetPoint" />
            <Array as="points" />
          </mxGeometry>
        </mxCell>
        <mxCell id="CmpwZ4_OyK2lbgLf2R7C-174" value="" style="endArrow=none;html=1;rounded=0;fontSize=12;startSize=8;endSize=8;curved=1;exitX=0.42;exitY=-0.003;exitDx=0;exitDy=0;exitPerimeter=0;" edge="1" parent="1" source="CmpwZ4_OyK2lbgLf2R7C-64">
          <mxGeometry width="50" height="50" relative="1" as="geometry">
            <mxPoint x="617.5" y="-110" as="sourcePoint" />
            <mxPoint x="640" y="-100" as="targetPoint" />
            <Array as="points">
              <mxPoint x="610" y="-100" />
            </Array>
          </mxGeometry>
        </mxCell>
        <mxCell id="CmpwZ4_OyK2lbgLf2R7C-177" value="" style="endArrow=none;html=1;rounded=0;fontSize=12;startSize=8;endSize=8;curved=1;exitX=0.5;exitY=0;exitDx=0;exitDy=0;entryDx=0;entryDy=0;entryPerimeter=0;" edge="1" parent="1" source="CmpwZ4_OyK2lbgLf2R7C-64" target="CmpwZ4_OyK2lbgLf2R7C-175">
          <mxGeometry width="50" height="50" relative="1" as="geometry">
            <mxPoint x="620" y="-90" as="sourcePoint" />
            <mxPoint x="764" y="-241" as="targetPoint" />
            <Array as="points" />
          </mxGeometry>
        </mxCell>
        <mxCell id="CmpwZ4_OyK2lbgLf2R7C-175" value="" style="shape=waypoint;sketch=0;size=6;pointerEvents=1;points=[];fillColor=none;resizable=0;rotatable=0;perimeter=centerPerimeter;snapToPoint=1;" vertex="1" parent="1">
          <mxGeometry x="630" y="-110" width="20" height="20" as="geometry" />
        </mxCell>
        <mxCell id="CmpwZ4_OyK2lbgLf2R7C-178" value="" style="endArrow=none;html=1;rounded=0;fontSize=12;startSize=8;endSize=8;curved=1;exitX=0.407;exitY=0;exitDx=0;exitDy=0;exitPerimeter=0;" edge="1" parent="1" source="CmpwZ4_OyK2lbgLf2R7C-48">
          <mxGeometry width="50" height="50" relative="1" as="geometry">
            <mxPoint x="820" y="210" as="sourcePoint" />
            <mxPoint x="850" y="200" as="targetPoint" />
            <Array as="points">
              <mxPoint x="830" y="210" />
            </Array>
          </mxGeometry>
        </mxCell>
        <mxCell id="CmpwZ4_OyK2lbgLf2R7C-179" value="" style="endArrow=none;html=1;rounded=0;fontSize=12;startSize=8;endSize=8;curved=1;exitX=0.569;exitY=0;exitDx=0;exitDy=0;exitPerimeter=0;" edge="1" parent="1" source="CmpwZ4_OyK2lbgLf2R7C-48">
          <mxGeometry width="50" height="50" relative="1" as="geometry">
            <mxPoint x="850" y="220" as="sourcePoint" />
            <mxPoint x="850" y="200" as="targetPoint" />
            <Array as="points">
              <mxPoint x="860" y="210" />
            </Array>
          </mxGeometry>
        </mxCell>
        <mxCell id="CmpwZ4_OyK2lbgLf2R7C-181" value="" style="endArrow=none;html=1;rounded=0;fontSize=12;startSize=8;endSize=8;curved=1;exitX=0.5;exitY=0;exitDx=0;exitDy=0;entryDx=0;entryDy=0;entryPerimeter=0;" edge="1" parent="1" source="CmpwZ4_OyK2lbgLf2R7C-48" target="CmpwZ4_OyK2lbgLf2R7C-180">
          <mxGeometry width="50" height="50" relative="1" as="geometry">
            <mxPoint x="845" y="220" as="sourcePoint" />
            <mxPoint x="865" y="-244" as="targetPoint" />
            <Array as="points" />
          </mxGeometry>
        </mxCell>
        <mxCell id="CmpwZ4_OyK2lbgLf2R7C-180" value="" style="shape=waypoint;sketch=0;size=6;pointerEvents=1;points=[];fillColor=none;resizable=0;rotatable=0;perimeter=centerPerimeter;snapToPoint=1;" vertex="1" parent="1">
          <mxGeometry x="840" y="190" width="20" height="20" as="geometry" />
        </mxCell>
        <mxCell id="CmpwZ4_OyK2lbgLf2R7C-182" value="" style="endArrow=none;html=1;rounded=0;fontSize=12;startSize=8;endSize=8;curved=1;exitX=0.646;exitY=0.003;exitDx=0;exitDy=0;exitPerimeter=0;" edge="1" parent="1" source="CmpwZ4_OyK2lbgLf2R7C-48">
          <mxGeometry width="50" height="50" relative="1" as="geometry">
            <mxPoint x="890" y="220" as="sourcePoint" />
            <mxPoint x="930" y="200" as="targetPoint" />
            <Array as="points">
              <mxPoint x="900" y="200" />
            </Array>
          </mxGeometry>
        </mxCell>
        <mxCell id="CmpwZ4_OyK2lbgLf2R7C-183" value="" style="endArrow=none;html=1;rounded=0;fontSize=12;startSize=8;endSize=8;curved=1;exitX=0.78;exitY=0.002;exitDx=0;exitDy=0;exitPerimeter=0;" edge="1" parent="1" source="CmpwZ4_OyK2lbgLf2R7C-48">
          <mxGeometry width="50" height="50" relative="1" as="geometry">
            <mxPoint x="910" y="220" as="sourcePoint" />
            <mxPoint x="930" y="200" as="targetPoint" />
            <Array as="points">
              <mxPoint x="930" y="210" />
            </Array>
          </mxGeometry>
        </mxCell>
        <mxCell id="CmpwZ4_OyK2lbgLf2R7C-184" value="" style="shape=waypoint;sketch=0;size=6;pointerEvents=1;points=[];fillColor=none;resizable=0;rotatable=0;perimeter=centerPerimeter;snapToPoint=1;" vertex="1" parent="1">
          <mxGeometry x="920" y="190" width="20" height="20" as="geometry" />
        </mxCell>
        <mxCell id="CmpwZ4_OyK2lbgLf2R7C-186" value="" style="endArrow=none;html=1;rounded=0;fontSize=12;startSize=8;endSize=8;curved=1;exitX=0.356;exitY=0.001;exitDx=0;exitDy=0;exitPerimeter=0;" edge="1" parent="1" source="CmpwZ4_OyK2lbgLf2R7C-20">
          <mxGeometry width="50" height="50" relative="1" as="geometry">
            <mxPoint x="1090" y="-70" as="sourcePoint" />
            <mxPoint x="1080" y="-140" as="targetPoint" />
            <Array as="points">
              <mxPoint x="1080" y="-130" />
            </Array>
          </mxGeometry>
        </mxCell>
        <mxCell id="CmpwZ4_OyK2lbgLf2R7C-187" value="" style="endArrow=none;html=1;rounded=0;fontSize=12;startSize=8;endSize=8;curved=1;exitX=0.538;exitY=0.001;exitDx=0;exitDy=0;exitPerimeter=0;" edge="1" parent="1" source="CmpwZ4_OyK2lbgLf2R7C-20">
          <mxGeometry width="50" height="50" relative="1" as="geometry">
            <mxPoint x="1130" y="-130" as="sourcePoint" />
            <mxPoint x="1080" y="-140" as="targetPoint" />
            <Array as="points">
              <mxPoint x="1110" y="-140" />
            </Array>
          </mxGeometry>
        </mxCell>
        <mxCell id="CmpwZ4_OyK2lbgLf2R7C-188" value="" style="shape=waypoint;sketch=0;size=6;pointerEvents=1;points=[];fillColor=none;resizable=0;rotatable=0;perimeter=centerPerimeter;snapToPoint=1;" vertex="1" parent="1">
          <mxGeometry x="1070" y="-150" width="20" height="20" as="geometry" />
        </mxCell>
      </root>
    </mxGraphModel>
  </diagram>
</mxfile>
